<mxfile host="app.diagrams.net" modified="2023-06-28T18:02:37.463Z" agent="Mozilla/5.0 (Windows NT 10.0; Win64; x64) AppleWebKit/537.36 (KHTML, like Gecko) Chrome/114.0.0.0 Safari/537.36 Edg/114.0.1823.58" etag="cZ2ZnEWce6hEGnESVc85" version="21.5.1" type="device">
  <diagram name="PÃ¡gina-1" id="inimk7HHK3tcwULqWX7s">
    <mxGraphModel dx="1423" dy="784" grid="1" gridSize="10" guides="1" tooltips="1" connect="1" arrows="1" fold="1" page="1" pageScale="1" pageWidth="827" pageHeight="1169" math="0" shadow="0">
      <root>
        <mxCell id="0" />
        <mxCell id="1" parent="0" />
        <mxCell id="gccrgv8mIjw9WKZcTe3C-19" value="" style="endArrow=none;html=1;rounded=0;entryX=0;entryY=0.5;entryDx=0;entryDy=0;exitX=0.369;exitY=-0.015;exitDx=0;exitDy=0;exitPerimeter=0;" parent="1" source="TYZp05myx1OdeTNVtpiw-42" target="TYZp05myx1OdeTNVtpiw-14" edge="1">
          <mxGeometry width="50" height="50" relative="1" as="geometry">
            <mxPoint x="165" y="363.16176470588243" as="sourcePoint" />
            <mxPoint x="441.1200000000001" y="239.45999999999992" as="targetPoint" />
          </mxGeometry>
        </mxCell>
        <mxCell id="gccrgv8mIjw9WKZcTe3C-21" value="API Empresa" style="shape=cube;whiteSpace=wrap;html=1;boundedLbl=1;backgroundOutline=1;darkOpacity=0.05;darkOpacity2=0.1;rotation=0;size=10;direction=south;" parent="1" vertex="1">
          <mxGeometry x="960" y="210" width="70" height="70" as="geometry" />
        </mxCell>
        <mxCell id="zyXG3E5T3Itc6d8HCxnL-5" value="&amp;lt;&amp;lt;HTTP&amp;gt;&amp;gt;" style="text;html=1;align=center;verticalAlign=middle;resizable=0;points=[];autosize=1;strokeColor=none;fillColor=none;" parent="1" vertex="1">
          <mxGeometry x="730" y="217.5" width="80" height="30" as="geometry" />
        </mxCell>
        <mxCell id="TYZp05myx1OdeTNVtpiw-10" value="" style="group" vertex="1" connectable="0" parent="1">
          <mxGeometry x="470" y="150" width="220" height="220" as="geometry" />
        </mxCell>
        <mxCell id="TYZp05myx1OdeTNVtpiw-11" value="Server" style="verticalAlign=top;align=left;spacingTop=8;spacingLeft=2;spacingRight=12;shape=cube;size=10;direction=south;fontStyle=4;html=1;" vertex="1" parent="TYZp05myx1OdeTNVtpiw-10">
          <mxGeometry y="20" width="220" height="200" as="geometry" />
        </mxCell>
        <mxCell id="TYZp05myx1OdeTNVtpiw-12" value="" style="line;strokeWidth=1;fillColor=none;align=left;verticalAlign=middle;spacingTop=-1;spacingLeft=3;spacingRight=3;rotatable=0;labelPosition=right;points=[];portConstraint=eastwest;" vertex="1" parent="TYZp05myx1OdeTNVtpiw-10">
          <mxGeometry y="55" width="207.7777777777778" height="14.66666666666667" as="geometry" />
        </mxCell>
        <mxCell id="TYZp05myx1OdeTNVtpiw-13" value="VelocidadProcesamiento = 300 mHz" style="text;html=1;strokeColor=none;fillColor=none;align=center;verticalAlign=middle;whiteSpace=wrap;rounded=0;labelBackgroundColor=#ffffff;" vertex="1" parent="TYZp05myx1OdeTNVtpiw-10">
          <mxGeometry y="55.00431372549021" width="207.7777777777778" height="55" as="geometry" />
        </mxCell>
        <mxCell id="TYZp05myx1OdeTNVtpiw-14" value="memoria = 512 MB" style="text;html=1;strokeColor=none;fillColor=none;align=center;verticalAlign=middle;whiteSpace=wrap;rounded=0;labelBackgroundColor=#ffffff;" vertex="1" parent="TYZp05myx1OdeTNVtpiw-10">
          <mxGeometry y="82.5" width="207.7777777777778" height="55" as="geometry" />
        </mxCell>
        <mxCell id="TYZp05myx1OdeTNVtpiw-15" value="" style="line;strokeWidth=1;fillColor=none;align=left;verticalAlign=middle;spacingTop=-1;spacingLeft=3;spacingRight=3;rotatable=0;labelPosition=right;points=[];portConstraint=eastwest;labelBackgroundColor=#ffffff;" vertex="1" parent="TYZp05myx1OdeTNVtpiw-10">
          <mxGeometry y="127.14592592592594" width="207.7777777777778" height="10.352941176470589" as="geometry" />
        </mxCell>
        <mxCell id="TYZp05myx1OdeTNVtpiw-16" value="" style="line;strokeWidth=1;fillColor=none;align=left;verticalAlign=middle;spacingTop=-1;spacingLeft=3;spacingRight=3;rotatable=0;labelPosition=right;points=[];portConstraint=eastwest;labelBackgroundColor=#ffffff;" vertex="1" parent="TYZp05myx1OdeTNVtpiw-10">
          <mxGeometry y="137.5000435729848" width="207.7777777777778" height="10.352941176470589" as="geometry" />
        </mxCell>
        <mxCell id="TYZp05myx1OdeTNVtpiw-17" value="&lt;b&gt;Deploys&lt;/b&gt;" style="text;html=1;strokeColor=none;fillColor=none;align=center;verticalAlign=middle;whiteSpace=wrap;rounded=0;labelBackgroundColor=#ffffff;" vertex="1" parent="TYZp05myx1OdeTNVtpiw-10">
          <mxGeometry x="67.22222222222223" y="137.49411764705883" width="73.33333333333334" height="38.82352941176471" as="geometry" />
        </mxCell>
        <mxCell id="TYZp05myx1OdeTNVtpiw-18" value="saru.exe" style="text;html=1;strokeColor=none;fillColor=none;align=center;verticalAlign=middle;whiteSpace=wrap;rounded=0;labelBackgroundColor=#ffffff;" vertex="1" parent="TYZp05myx1OdeTNVtpiw-10">
          <mxGeometry x="67.22222222222223" y="169.18000000000004" width="73.33333333333334" height="30" as="geometry" />
        </mxCell>
        <mxCell id="TYZp05myx1OdeTNVtpiw-20" value="" style="endArrow=none;html=1;rounded=0;entryX=0;entryY=1;entryDx=0;entryDy=0;" edge="1" parent="1" target="TYZp05myx1OdeTNVtpiw-13">
          <mxGeometry width="50" height="50" relative="1" as="geometry">
            <mxPoint x="190" y="181" as="sourcePoint" />
            <mxPoint x="460" y="150" as="targetPoint" />
          </mxGeometry>
        </mxCell>
        <mxCell id="TYZp05myx1OdeTNVtpiw-21" value="" style="endArrow=none;html=1;rounded=0;entryX=0;entryY=0;entryDx=40;entryDy=70;entryPerimeter=0;exitX=0.385;exitY=0;exitDx=0;exitDy=0;exitPerimeter=0;" edge="1" parent="1" source="TYZp05myx1OdeTNVtpiw-11" target="gccrgv8mIjw9WKZcTe3C-21">
          <mxGeometry width="50" height="50" relative="1" as="geometry">
            <mxPoint x="650" y="231" as="sourcePoint" />
            <mxPoint x="810" y="231" as="targetPoint" />
          </mxGeometry>
        </mxCell>
        <mxCell id="TYZp05myx1OdeTNVtpiw-22" value="WiFi" style="ellipse;shape=cloud;whiteSpace=wrap;html=1;labelBackgroundColor=#ffffff;" vertex="1" parent="1">
          <mxGeometry x="810" y="217.5" width="80" height="55" as="geometry" />
        </mxCell>
        <mxCell id="TYZp05myx1OdeTNVtpiw-27" value="" style="group" vertex="1" connectable="0" parent="1">
          <mxGeometry x="60" y="80" width="140" height="200" as="geometry" />
        </mxCell>
        <mxCell id="TYZp05myx1OdeTNVtpiw-28" value="Cliente" style="verticalAlign=top;align=left;spacingTop=8;spacingLeft=2;spacingRight=12;shape=cube;size=10;direction=south;fontStyle=4;html=1;" vertex="1" parent="TYZp05myx1OdeTNVtpiw-27">
          <mxGeometry y="18.181818181818183" width="140" height="181.81818181818184" as="geometry" />
        </mxCell>
        <mxCell id="TYZp05myx1OdeTNVtpiw-29" value="" style="line;strokeWidth=1;fillColor=none;align=left;verticalAlign=middle;spacingTop=-1;spacingLeft=3;spacingRight=3;rotatable=0;labelPosition=right;points=[];portConstraint=eastwest;" vertex="1" parent="TYZp05myx1OdeTNVtpiw-27">
          <mxGeometry y="50" width="132.22222222222223" height="13.333333333333337" as="geometry" />
        </mxCell>
        <mxCell id="TYZp05myx1OdeTNVtpiw-34" value="&lt;b&gt;Deploys&lt;/b&gt;" style="text;html=1;strokeColor=none;fillColor=none;align=center;verticalAlign=middle;whiteSpace=wrap;rounded=0;labelBackgroundColor=#ffffff;" vertex="1" parent="TYZp05myx1OdeTNVtpiw-27">
          <mxGeometry x="42.77777777777778" y="63.33101604278077" width="46.66666666666667" height="35.29411764705883" as="geometry" />
        </mxCell>
        <mxCell id="TYZp05myx1OdeTNVtpiw-35" value="sacarPasaje.exe" style="text;html=1;strokeColor=none;fillColor=none;align=center;verticalAlign=middle;whiteSpace=wrap;rounded=0;labelBackgroundColor=#ffffff;" vertex="1" parent="TYZp05myx1OdeTNVtpiw-27">
          <mxGeometry x="42.78" y="98.62400000000001" width="47.22" height="29.376" as="geometry" />
        </mxCell>
        <mxCell id="TYZp05myx1OdeTNVtpiw-36" value="Suscribirse.exe" style="text;html=1;strokeColor=none;fillColor=none;align=center;verticalAlign=middle;whiteSpace=wrap;rounded=0;labelBackgroundColor=#ffffff;" vertex="1" parent="TYZp05myx1OdeTNVtpiw-27">
          <mxGeometry x="46.389999999999986" y="120" width="47.22" height="29.376" as="geometry" />
        </mxCell>
        <mxCell id="TYZp05myx1OdeTNVtpiw-37" value="WiFi" style="ellipse;shape=cloud;whiteSpace=wrap;html=1;labelBackgroundColor=#ffffff;" vertex="1" parent="1">
          <mxGeometry x="310" y="200" width="80" height="55" as="geometry" />
        </mxCell>
        <mxCell id="TYZp05myx1OdeTNVtpiw-40" value="WiFi" style="ellipse;shape=cloud;whiteSpace=wrap;html=1;labelBackgroundColor=#ffffff;" vertex="1" parent="1">
          <mxGeometry x="280" y="285" width="80" height="55" as="geometry" />
        </mxCell>
        <mxCell id="TYZp05myx1OdeTNVtpiw-41" value="" style="group" vertex="1" connectable="0" parent="1">
          <mxGeometry x="60" y="280" width="140" height="200" as="geometry" />
        </mxCell>
        <mxCell id="TYZp05myx1OdeTNVtpiw-42" value="Admin" style="verticalAlign=top;align=left;spacingTop=8;spacingLeft=2;spacingRight=12;shape=cube;size=10;direction=south;fontStyle=4;html=1;" vertex="1" parent="TYZp05myx1OdeTNVtpiw-41">
          <mxGeometry y="18.181818181818183" width="140" height="181.81818181818184" as="geometry" />
        </mxCell>
        <mxCell id="TYZp05myx1OdeTNVtpiw-43" value="" style="line;strokeWidth=1;fillColor=none;align=left;verticalAlign=middle;spacingTop=-1;spacingLeft=3;spacingRight=3;rotatable=0;labelPosition=right;points=[];portConstraint=eastwest;" vertex="1" parent="TYZp05myx1OdeTNVtpiw-41">
          <mxGeometry y="50" width="132.22222222222223" height="13.333333333333337" as="geometry" />
        </mxCell>
        <mxCell id="TYZp05myx1OdeTNVtpiw-44" value="&lt;b&gt;Deploys&lt;/b&gt;" style="text;html=1;strokeColor=none;fillColor=none;align=center;verticalAlign=middle;whiteSpace=wrap;rounded=0;labelBackgroundColor=#ffffff;" vertex="1" parent="TYZp05myx1OdeTNVtpiw-41">
          <mxGeometry x="42.77777777777778" y="63.33101604278077" width="46.66666666666667" height="35.29411764705883" as="geometry" />
        </mxCell>
        <mxCell id="TYZp05myx1OdeTNVtpiw-45" value="sacarPasaje.exe" style="text;html=1;strokeColor=none;fillColor=none;align=center;verticalAlign=middle;whiteSpace=wrap;rounded=0;labelBackgroundColor=#ffffff;" vertex="1" parent="TYZp05myx1OdeTNVtpiw-41">
          <mxGeometry x="42.78" y="98.62400000000001" width="47.22" height="29.376" as="geometry" />
        </mxCell>
        <mxCell id="TYZp05myx1OdeTNVtpiw-46" value="Suscribirse.exe" style="text;html=1;strokeColor=none;fillColor=none;align=center;verticalAlign=middle;whiteSpace=wrap;rounded=0;labelBackgroundColor=#ffffff;" vertex="1" parent="TYZp05myx1OdeTNVtpiw-41">
          <mxGeometry x="46.389999999999986" y="120" width="47.22" height="29.376" as="geometry" />
        </mxCell>
        <mxCell id="TYZp05myx1OdeTNVtpiw-47" value="&amp;lt;&amp;lt;RJ-45&amp;gt;&amp;gt;" style="text;html=1;strokeColor=none;fillColor=none;align=center;verticalAlign=middle;whiteSpace=wrap;rounded=0;labelBackgroundColor=#ffffff;" vertex="1" parent="1">
          <mxGeometry x="580" y="420" width="70" height="30" as="geometry" />
        </mxCell>
        <mxCell id="TYZp05myx1OdeTNVtpiw-48" value="" style="group" vertex="1" connectable="0" parent="1">
          <mxGeometry x="490" y="500" width="180" height="120" as="geometry" />
        </mxCell>
        <mxCell id="TYZp05myx1OdeTNVtpiw-49" value="&lt;span style=&quot;white-space: pre;&quot;&gt;RAID farm&lt;/span&gt;" style="verticalAlign=top;align=left;spacingTop=8;spacingLeft=2;spacingRight=12;shape=cube;size=10;direction=south;fontStyle=4;html=1;" vertex="1" parent="TYZp05myx1OdeTNVtpiw-48">
          <mxGeometry width="180" height="100" as="geometry" />
        </mxCell>
        <mxCell id="TYZp05myx1OdeTNVtpiw-50" value="" style="line;strokeWidth=1;fillColor=none;align=left;verticalAlign=middle;spacingTop=-1;spacingLeft=3;spacingRight=3;rotatable=0;labelPosition=right;points=[];portConstraint=eastwest;" vertex="1" parent="TYZp05myx1OdeTNVtpiw-48">
          <mxGeometry y="30" width="170" height="7.999999999999998" as="geometry" />
        </mxCell>
        <mxCell id="TYZp05myx1OdeTNVtpiw-51" value="memoria = 512 MB" style="text;html=1;strokeColor=none;fillColor=none;align=center;verticalAlign=middle;whiteSpace=wrap;rounded=0;labelBackgroundColor=#ffffff;" vertex="1" parent="TYZp05myx1OdeTNVtpiw-48">
          <mxGeometry y="44.99971291866028" width="170" height="30" as="geometry" />
        </mxCell>
        <mxCell id="TYZp05myx1OdeTNVtpiw-56" value="" style="endArrow=none;html=1;rounded=0;entryX=0;entryY=0;entryDx=200;entryDy=115;entryPerimeter=0;exitX=0.004;exitY=0.518;exitDx=0;exitDy=0;exitPerimeter=0;" edge="1" parent="1" source="TYZp05myx1OdeTNVtpiw-49" target="TYZp05myx1OdeTNVtpiw-11">
          <mxGeometry width="50" height="50" relative="1" as="geometry">
            <mxPoint x="600" y="420" as="sourcePoint" />
            <mxPoint x="650" y="370" as="targetPoint" />
          </mxGeometry>
        </mxCell>
        <mxCell id="TYZp05myx1OdeTNVtpiw-58" value="&amp;lt;&amp;lt;HTTP&amp;gt;&amp;gt;" style="text;html=1;align=center;verticalAlign=middle;resizable=0;points=[];autosize=1;strokeColor=none;fillColor=none;rotation=-15;" vertex="1" parent="1">
          <mxGeometry x="210" y="320" width="80" height="30" as="geometry" />
        </mxCell>
        <mxCell id="TYZp05myx1OdeTNVtpiw-59" value="&amp;lt;&amp;lt;HTTP&amp;gt;&amp;gt;" style="text;html=1;align=center;verticalAlign=middle;resizable=0;points=[];autosize=1;strokeColor=none;fillColor=none;rotation=15;" vertex="1" parent="1">
          <mxGeometry x="250" y="180" width="80" height="30" as="geometry" />
        </mxCell>
        <mxCell id="TYZp05myx1OdeTNVtpiw-61" value="Â¿poenmos algunos deploys de la API?&lt;br&gt;&amp;nbsp;tal vez caracteristicas como la velocidad no necesitamos saber.&lt;br&gt;Pero algunos deploys si, para mostrar funcionalidad" style="text;html=1;align=center;verticalAlign=middle;resizable=0;points=[];autosize=1;strokeColor=none;fillColor=none;" vertex="1" parent="1">
          <mxGeometry x="880" y="293" width="360" height="60" as="geometry" />
        </mxCell>
      </root>
    </mxGraphModel>
  </diagram>
</mxfile>
